<svg width="137" height="27" viewBox="0 0 137 27" fill="none" xmlns="http://www.w3.org/2000/svg">
<g id="Frame">
<path id="Vector" d="M5.92596 25.2392V7.29572H0.629761V1.74258H17.6648V7.29572H12.3686V25.2392H5.92596ZM18.9728 25.2392V9.02909H24.3981V12.8489C24.9579 11.4579 25.7221 10.4147 26.6909 9.71922C27.6597 9.02374 28.8331 8.67599 30.211 8.67599C30.4371 8.67599 30.6631 8.68669 30.8892 8.70809C31.126 8.71879 31.3628 8.74019 31.5997 8.77229L31.0506 13.9723C30.7061 13.8547 30.367 13.7691 30.0334 13.7156C29.6996 13.662 29.3767 13.6353 29.0646 13.6353C27.6652 13.6353 26.5833 14.0633 25.819 14.9193C25.0655 15.7645 24.6887 16.9683 24.6887 18.5305V25.2392H18.9728ZM46.1642 17.118C46.1642 15.8555 45.8251 14.8551 45.147 14.1168C44.4687 13.3785 43.543 13.0093 42.3696 13.0093C41.1963 13.0093 40.2706 13.3785 39.5923 14.1168C38.9249 14.8444 38.5913 15.8448 38.5913 17.118C38.5913 18.3807 38.9304 19.3757 39.6085 20.1033C40.2867 20.8309 41.207 21.1947 42.3696 21.1947C43.543 21.1947 44.4687 20.8309 45.147 20.1033C45.8251 19.3757 46.1642 18.3807 46.1642 17.118ZM51.2182 9.02909V25.2392H45.9381V22.607C45.1846 23.7305 44.3342 24.5544 43.3869 25.0787C42.4504 25.603 41.347 25.8651 40.0768 25.8651C37.9023 25.8651 36.1638 25.0787 34.8613 23.5058C33.5588 21.9223 32.9075 19.8037 32.9075 17.1502C32.9075 14.5074 33.5857 12.4102 34.942 10.8587C36.3092 9.29658 38.1445 8.5155 40.4481 8.5155C41.6753 8.5155 42.7302 8.77764 43.6129 9.30193C44.5064 9.81552 45.2707 10.6126 45.9058 11.6933V9.02909H51.2182ZM60.4865 25.2392L53.1558 9.02909H59.2916L62.0689 16.1872C62.1012 16.2621 62.1389 16.353 62.182 16.4601C62.5372 17.4017 62.7578 18.1559 62.8439 18.723C62.9193 18.1987 63.1293 17.4979 63.4737 16.6205C63.549 16.4279 63.6029 16.2835 63.6352 16.1872L66.4124 9.02909H72.403L64.9915 25.2392H60.4865ZM85.4658 15.0477C85.3582 14.1275 85.003 13.3892 84.4002 12.8328C83.8081 12.2765 83.0761 11.9983 82.2042 11.9983C81.2676 11.9983 80.5195 12.2551 79.9597 12.7687C79.4108 13.2715 79.0448 14.0312 78.8617 15.0477H85.4658ZM91.1335 18.2736H78.7326C78.7434 19.5255 79.0663 20.4939 79.7014 21.1786C80.3365 21.8527 81.2354 22.1897 82.398 22.1897C83.2699 22.1897 84.0019 22.0292 84.594 21.7083C85.1968 21.3765 85.6542 20.8897 85.9665 20.2477L90.2938 21.9811C89.7771 23.2223 88.8621 24.18 87.5488 24.854C86.2355 25.5281 84.6262 25.8651 82.7209 25.8651C79.8791 25.8651 77.5969 25.084 75.8745 23.5219C74.163 21.949 73.3072 19.8786 73.3072 17.3107C73.3072 14.7856 74.163 12.6884 75.8745 11.0192C77.5969 9.35007 79.7713 8.5155 82.398 8.5155C85.0998 8.5155 87.2312 9.36078 88.7921 11.0513C90.3531 12.7419 91.1335 15.0584 91.1335 18.0008V18.2736ZM94.605 25.2392V0.362305H100.37V25.2392H94.605Z" fill="white"/>
<path id="Vector_2" d="M123.912 7.19928L123.944 7.26349C124.32 7.96967 124.574 8.59025 124.703 9.12524C124.821 8.63305 125.063 8.04991 125.429 7.37583C125.473 7.30093 125.505 7.24209 125.526 7.19928L128.368 1.74243H136.006L128.11 13.0414L136.845 25.239H129.531L125.526 18.2735C125.343 17.9632 125.181 17.6476 125.042 17.3266C124.903 16.9949 124.789 16.6632 124.703 16.3315C124.606 16.706 124.493 17.0537 124.364 17.3748C124.234 17.6957 124.084 17.9953 123.912 18.2735L119.875 25.239H112.56L121.328 12.9129L113.4 1.74243H121.07L123.912 7.19928Z" fill="#636363"/>
</g>
</svg>
