<svg width="116" height="23" viewBox="0 0 116 23" fill="none" xmlns="http://www.w3.org/2000/svg">
<path d="M5.01758 21.5V6.21484H0.533203V1.48438H14.957V6.21484H10.4727V21.5H5.01758ZM16.0645 21.5V7.69141H20.6582V10.9453C21.1322 9.76042 21.7793 8.87174 22.5996 8.2793C23.4199 7.68685 24.4134 7.39062 25.5801 7.39062C25.7715 7.39062 25.9629 7.39974 26.1543 7.41797C26.3548 7.42708 26.5553 7.44531 26.7559 7.47266L26.291 11.9023C25.9993 11.8021 25.7122 11.7292 25.4297 11.6836C25.1471 11.638 24.8737 11.6152 24.6094 11.6152C23.4245 11.6152 22.5085 11.9798 21.8613 12.709C21.2233 13.429 20.9043 14.4544 20.9043 15.7852V21.5H16.0645ZM39.0879 14.582C39.0879 13.5065 38.8008 12.6543 38.2266 12.0254C37.6523 11.3965 36.8685 11.082 35.875 11.082C34.8815 11.082 34.0977 11.3965 33.5234 12.0254C32.9583 12.6452 32.6758 13.4974 32.6758 14.582C32.6758 15.6576 32.9629 16.5052 33.5371 17.125C34.1113 17.7448 34.8906 18.0547 35.875 18.0547C36.8685 18.0547 37.6523 17.7448 38.2266 17.125C38.8008 16.5052 39.0879 15.6576 39.0879 14.582ZM43.3672 7.69141V21.5H38.8965V19.2578C38.2585 20.2148 37.5384 20.9167 36.7363 21.3633C35.9434 21.8099 35.0091 22.0332 33.9336 22.0332C32.0924 22.0332 30.6204 21.3633 29.5176 20.0234C28.4147 18.6745 27.8633 16.8698 27.8633 14.6094C27.8633 12.3581 28.4375 10.5716 29.5859 9.25C30.7435 7.91927 32.2975 7.25391 34.248 7.25391C35.2871 7.25391 36.1803 7.47721 36.9277 7.92383C37.6842 8.36133 38.3314 9.04036 38.8691 9.96094V7.69141H43.3672ZM51.2148 21.5L45.0078 7.69141H50.2031L52.5547 13.7891C52.582 13.8529 52.6139 13.9303 52.6504 14.0215C52.9512 14.8236 53.138 15.4661 53.2109 15.9492C53.2747 15.5026 53.4525 14.9056 53.7441 14.1582C53.8079 13.9941 53.8535 13.8711 53.8809 13.7891L56.2324 7.69141H61.3047L55.0293 21.5H51.2148ZM72.3652 12.8184C72.2741 12.0345 71.9733 11.4056 71.4629 10.9316C70.9616 10.4577 70.3418 10.2207 69.6035 10.2207C68.8105 10.2207 68.1771 10.4395 67.7031 10.877C67.2383 11.3053 66.9284 11.9525 66.7734 12.8184H72.3652ZM77.1641 15.5664H66.6641C66.6732 16.6328 66.9466 17.4577 67.4844 18.041C68.0221 18.6152 68.7832 18.9023 69.7676 18.9023C70.5059 18.9023 71.1257 18.7656 71.627 18.4922C72.1374 18.2096 72.5247 17.7949 72.7891 17.248L76.4531 18.7246C76.0156 19.7819 75.2409 20.5977 74.1289 21.1719C73.0169 21.7461 71.6543 22.0332 70.041 22.0332C67.6348 22.0332 65.7025 21.3678 64.2441 20.0371C62.7949 18.6973 62.0703 16.9336 62.0703 14.7461C62.0703 12.5951 62.7949 10.8086 64.2441 9.38672C65.7025 7.96484 67.5436 7.25391 69.7676 7.25391C72.0553 7.25391 73.86 7.97396 75.1816 9.41406C76.5033 10.8542 77.1641 12.8275 77.1641 15.334V15.5664ZM80.1035 21.5V0.308594H84.9844V21.5H80.1035Z" fill="white"/>
<path d="M104.918 6.13281L104.945 6.1875C105.264 6.78906 105.479 7.31771 105.588 7.77344C105.688 7.35417 105.893 6.85742 106.203 6.2832C106.24 6.2194 106.267 6.16927 106.285 6.13281L108.691 1.48438H115.158L108.473 11.1094L115.869 21.5H109.676L106.285 15.5664C106.13 15.3021 105.993 15.0332 105.875 14.7598C105.757 14.4772 105.661 14.1947 105.588 13.9121C105.506 14.2311 105.41 14.5273 105.301 14.8008C105.191 15.0742 105.064 15.3294 104.918 15.5664L101.5 21.5H95.3066L102.73 11L96.0176 1.48438H102.512L104.918 6.13281Z" fill="#636363"/>
</svg>
